<?xml version="1.0" standalone="no"?>
<!DOCTYPE svg PUBLIC "-//W3C//DTD SVG 20010904//EN"
 "http://www.w3.org/TR/2001/REC-SVG-20010904/DTD/svg10.dtd">
<svg version="1.0" xmlns="http://www.w3.org/2000/svg"
 width="512.000000pt" height="512.000000pt" viewBox="0 0 512.000000 512.000000"
 preserveAspectRatio="xMidYMid meet">
<metadata>
Created by potrace 1.14, written by Peter Selinger 2001-2017
</metadata>
<g transform="translate(0.000000,512.000000) scale(0.100000,-0.100000)"
fill="#000000" stroke="none">
<path d="M3675 5114 c-22 -2 -92 -9 -155 -14 -388 -36 -846 -151 -1189 -297
-579 -247 -1092 -639 -1492 -1140 -92 -115 -252 -348 -314 -455 l-27 -48 36
-21 35 -21 -39 -79 c-22 -43 -44 -79 -48 -79 -4 1 -18 7 -32 15 -14 8 -28 14
-32 15 -8 0 -61 -100 -72 -138 -6 -19 -2 -25 29 -38 21 -8 35 -20 32 -27 -3
-7 -17 -41 -32 -77 -15 -36 -28 -66 -30 -68 -2 -2 -19 4 -39 12 l-36 15 -14
-34 c-31 -73 -98 -291 -130 -423 -78 -318 -115 -594 -123 -927 -9 -337 17
-633 83 -965 38 -194 35 -190 163 -220 251 -59 502 -89 796 -97 712 -19 1378
123 1965 417 569 285 1076 732 1442 1270 87 128 208 330 208 349 0 5 -9 12
-19 16 -43 13 -44 30 -5 107 20 40 38 74 39 76 2 2 17 -4 34 -12 16 -9 33 -16
36 -16 3 0 17 26 31 58 48 107 48 100 8 117 -39 16 -39 12 0 110 14 37 28 59
36 57 71 -17 62 -26 108 120 80 257 142 560 174 853 17 158 17 693 0 840 -31
262 -82 546 -107 596 -21 40 -80 58 -320 98 -246 41 -386 53 -675 56 -157 2
-303 1 -325 -1z m50 -554 l360 -360 -123 -122 -122 -123 -440 440 c-242 242
-436 443 -432 447 8 8 332 73 382 77 8 0 177 -161 375 -359z m-837 -319 c63
-33 111 -96 126 -167 15 -66 -41 -134 -109 -134 -82 0 -182 84 -206 173 -13
50 -4 89 28 121 32 33 105 36 161 7z m1675 -519 l357 -357 -25 -145 c-24 -136
-49 -247 -57 -256 -2 -2 -202 195 -443 436 l-440 440 120 120 c66 66 122 120
125 120 3 0 166 -161 363 -358z m-1994 282 c21 -15 51 -70 51 -94 0 -19 -40
-50 -65 -50 -15 0 -40 14 -60 33 -42 38 -55 86 -30 110 21 22 74 22 104 1z
m531 -909 l225 -225 -58 -57 -57 -58 -227 227 -228 228 55 55 c30 30 57 55 60
55 3 0 106 -101 230 -225z m180 182 c0 -2 -15 -16 -32 -33 l-33 -29 29 33 c28
30 36 37 36 29z m-417 -539 l-67 -68 -63 62 -63 62 67 68 67 68 63 -62 63 -62
-67 -68z m-243 -123 l225 -225 -58 -57 -57 -58 -227 227 -228 228 55 55 c30
30 57 55 60 55 3 0 106 -101 230 -225z m-237 -357 l-67 -68 -63 62 -63 62 67
68 67 68 63 -62 63 -62 -67 -68z m-243 -123 l225 -225 -58 -57 -57 -58 -227
227 -228 228 55 55 c30 30 57 55 60 55 3 0 106 -101 230 -225z m-1098 -977
l-122 -123 -360 360 -360 360 6 45 c10 73 64 341 70 352 4 6 205 -188 448
-431 l441 -441 -123 -122z m868 749 c0 -2 -17 -19 -37 -38 l-38 -34 34 38 c33
34 41 42 41 34z m-186 -1186 l439 -439 -39 -11 c-32 -9 -209 -44 -339 -66 -28
-5 -51 16 -390 355 l-360 360 120 120 c66 66 122 120 125 120 3 0 203 -198
444 -439z"/>
</g>
</svg>
